<svg xmlns="http://www.w3.org/2000/svg" viewBox="0 0 592 249"><path d="M 409,0 L 408,1 L 403,1 L 402,2 L 399,2 L 398,3 L 395,3 L 394,4 L 392,4 L 391,5 L 390,5 L 389,6 L 387,6 L 386,7 L 385,7 L 384,8 L 383,8 L 382,9 L 381,9 L 380,10 L 379,10 L 378,11 L 377,11 L 375,13 L 374,13 L 373,14 L 372,14 L 369,17 L 368,17 L 365,20 L 364,20 L 354,30 L 354,31 L 351,34 L 351,35 L 348,38 L 348,39 L 347,40 L 347,41 L 345,43 L 345,44 L 344,45 L 344,46 L 343,47 L 343,48 L 342,49 L 342,51 L 341,52 L 341,53 L 340,54 L 340,56 L 339,57 L 339,59 L 338,60 L 338,63 L 337,64 L 337,67 L 336,68 L 336,72 L 335,73 L 335,78 L 334,79 L 334,88 L 333,89 L 333,97 L 334,98 L 334,107 L 335,108 L 335,113 L 336,114 L 336,124 L 335,125 L 335,128 L 334,129 L 334,130 L 333,131 L 333,132 L 332,133 L 332,134 L 328,138 L 327,138 L 326,139 L 325,139 L 324,140 L 323,140 L 322,141 L 310,141 L 309,140 L 307,140 L 305,138 L 304,138 L 294,128 L 294,127 L 292,125 L 292,124 L 290,122 L 290,121 L 289,120 L 289,119 L 287,117 L 287,116 L 286,115 L 286,114 L 284,112 L 284,111 L 283,110 L 283,109 L 281,107 L 281,106 L 280,105 L 280,104 L 279,103 L 279,102 L 277,100 L 277,99 L 276,98 L 276,97 L 275,96 L 275,95 L 273,93 L 273,92 L 272,91 L 272,90 L 270,88 L 270,87 L 269,86 L 269,85 L 268,84 L 268,83 L 266,81 L 266,80 L 264,78 L 264,77 L 263,76 L 263,75 L 261,73 L 261,72 L 259,70 L 259,69 L 256,66 L 256,65 L 254,63 L 254,62 L 250,58 L 250,57 L 245,52 L 245,51 L 234,40 L 233,40 L 229,36 L 228,36 L 225,33 L 224,33 L 222,31 L 221,31 L 220,30 L 219,30 L 218,29 L 217,29 L 215,27 L 214,27 L 213,26 L 211,26 L 210,25 L 209,25 L 208,24 L 207,24 L 206,23 L 204,23 L 203,22 L 201,22 L 200,21 L 197,21 L 196,20 L 193,20 L 192,19 L 187,19 L 186,18 L 167,18 L 166,19 L 164,19 L 164,98 L 163,99 L 83,99 L 82,98 L 82,19 L 0,19 L 0,98 L 81,98 L 82,99 L 82,178 L 164,178 L 164,99 L 165,98 L 178,98 L 179,99 L 182,99 L 183,100 L 184,100 L 185,101 L 186,101 L 187,102 L 188,102 L 190,104 L 191,104 L 198,111 L 198,112 L 201,115 L 201,116 L 203,118 L 203,119 L 205,121 L 205,122 L 206,123 L 206,124 L 208,126 L 208,127 L 210,129 L 210,130 L 211,131 L 211,132 L 213,134 L 213,135 L 215,137 L 215,138 L 217,140 L 217,141 L 219,143 L 219,144 L 220,145 L 220,146 L 222,148 L 222,149 L 224,151 L 224,152 L 225,153 L 225,154 L 227,156 L 227,157 L 229,159 L 229,160 L 230,161 L 230,162 L 232,164 L 232,165 L 234,167 L 234,168 L 236,170 L 236,171 L 239,174 L 239,175 L 242,178 L 242,179 L 249,186 L 249,187 L 250,188 L 251,188 L 259,196 L 260,196 L 264,200 L 265,200 L 267,202 L 268,202 L 270,204 L 271,204 L 272,205 L 273,205 L 275,207 L 276,207 L 277,208 L 278,208 L 279,209 L 281,209 L 282,210 L 283,210 L 284,211 L 286,211 L 287,212 L 289,212 L 290,213 L 293,213 L 294,214 L 298,214 L 299,215 L 305,215 L 306,216 L 333,216 L 334,215 L 338,215 L 339,214 L 342,214 L 343,213 L 345,213 L 346,212 L 348,212 L 349,211 L 351,211 L 352,210 L 353,210 L 354,209 L 355,209 L 356,208 L 357,208 L 358,207 L 359,207 L 360,206 L 361,206 L 362,205 L 363,205 L 365,203 L 366,203 L 368,201 L 369,201 L 371,199 L 372,199 L 376,195 L 377,195 L 391,181 L 391,180 L 394,177 L 394,176 L 396,174 L 396,173 L 398,171 L 398,170 L 399,169 L 399,168 L 400,167 L 400,166 L 401,165 L 401,164 L 402,163 L 402,162 L 403,161 L 403,160 L 404,159 L 404,157 L 405,156 L 405,155 L 406,154 L 406,152 L 407,151 L 407,148 L 408,147 L 408,144 L 409,143 L 409,139 L 410,138 L 410,133 L 411,132 L 411,107 L 410,106 L 410,97 L 409,96 L 409,86 L 410,85 L 410,83 L 412,81 L 412,80 L 416,76 L 417,76 L 418,75 L 419,75 L 420,74 L 422,74 L 423,73 L 426,73 L 427,74 L 430,74 L 431,75 L 432,75 L 433,76 L 434,76 L 442,84 L 442,85 L 444,87 L 444,88 L 445,89 L 445,90 L 446,91 L 446,93 L 447,94 L 447,96 L 448,97 L 448,99 L 449,100 L 449,102 L 450,103 L 450,105 L 451,106 L 451,108 L 452,109 L 452,111 L 453,112 L 453,114 L 454,115 L 454,117 L 455,118 L 455,119 L 456,120 L 456,122 L 457,123 L 457,125 L 458,126 L 458,127 L 459,128 L 459,130 L 460,131 L 460,133 L 461,134 L 461,135 L 462,136 L 462,138 L 463,139 L 463,140 L 464,141 L 464,142 L 465,143 L 465,145 L 466,146 L 466,147 L 467,148 L 467,149 L 468,150 L 468,152 L 469,153 L 469,154 L 470,155 L 470,156 L 471,157 L 471,158 L 472,159 L 472,160 L 473,161 L 473,162 L 474,163 L 474,164 L 475,165 L 475,166 L 476,167 L 476,168 L 477,169 L 477,170 L 478,171 L 478,172 L 479,173 L 479,174 L 480,175 L 480,176 L 481,177 L 481,178 L 483,180 L 483,181 L 484,182 L 484,183 L 486,185 L 486,186 L 487,187 L 487,188 L 489,190 L 489,191 L 491,193 L 491,194 L 493,196 L 493,197 L 496,200 L 496,201 L 500,205 L 500,206 L 513,219 L 514,219 L 519,224 L 520,224 L 523,227 L 524,227 L 527,230 L 528,230 L 530,232 L 531,232 L 533,234 L 534,234 L 535,235 L 536,235 L 538,237 L 539,237 L 540,238 L 541,238 L 542,239 L 543,239 L 544,240 L 545,240 L 546,241 L 548,241 L 549,242 L 550,242 L 551,243 L 553,243 L 554,244 L 556,244 L 557,245 L 560,245 L 561,246 L 565,246 L 566,247 L 571,247 L 572,248 L 591,248 L 591,178 L 590,177 L 586,177 L 585,176 L 582,176 L 581,175 L 579,175 L 578,174 L 577,174 L 576,173 L 575,173 L 574,172 L 573,172 L 572,171 L 571,171 L 569,169 L 568,169 L 560,161 L 560,160 L 558,158 L 558,157 L 557,156 L 557,155 L 555,153 L 555,152 L 554,151 L 554,150 L 552,148 L 552,147 L 551,146 L 551,145 L 550,144 L 550,143 L 549,142 L 549,141 L 548,140 L 548,139 L 547,138 L 547,137 L 546,136 L 546,135 L 545,134 L 545,133 L 544,132 L 544,131 L 543,130 L 543,129 L 542,128 L 542,127 L 541,126 L 541,125 L 540,124 L 540,123 L 539,122 L 539,121 L 538,120 L 538,119 L 537,118 L 537,116 L 536,115 L 536,114 L 535,113 L 535,112 L 534,111 L 534,110 L 533,109 L 533,108 L 532,107 L 532,105 L 531,104 L 531,103 L 530,102 L 530,101 L 529,100 L 529,99 L 528,98 L 528,96 L 527,95 L 527,94 L 526,93 L 526,92 L 525,91 L 525,90 L 524,89 L 524,87 L 523,86 L 523,85 L 522,84 L 522,83 L 521,82 L 521,81 L 520,80 L 520,78 L 519,77 L 519,76 L 518,75 L 518,74 L 517,73 L 517,72 L 516,71 L 516,70 L 515,69 L 515,68 L 514,67 L 514,66 L 513,65 L 513,64 L 512,63 L 512,62 L 511,61 L 511,60 L 510,59 L 510,58 L 509,57 L 509,56 L 508,55 L 508,54 L 507,53 L 507,52 L 506,51 L 506,50 L 505,49 L 505,48 L 503,46 L 503,45 L 502,44 L 502,43 L 500,41 L 500,40 L 498,38 L 498,37 L 496,35 L 496,34 L 493,31 L 493,30 L 484,21 L 483,21 L 480,18 L 479,18 L 476,15 L 475,15 L 474,14 L 473,14 L 471,12 L 470,12 L 469,11 L 468,11 L 467,10 L 466,10 L 465,9 L 464,9 L 463,8 L 462,8 L 461,7 L 460,7 L 459,6 L 457,6 L 456,5 L 454,5 L 453,4 L 451,4 L 450,3 L 447,3 L 446,2 L 443,2 L 442,1 L 437,1 L 436,0 Z" fill="green"/></svg>